<svg width="24" height="24" viewBox="0 0 24 24" fill="none" xmlns="http://www.w3.org/2000/svg">
<path d="M4.30371 4H5.78598C6.33997 4 6.61697 4 6.83798 4.11821C6.94262 4.17418 7.03647 4.24834 7.11513 4.3372C7.28125 4.52487 7.34532 4.79436 7.47345 5.33333L7.66753 6.14973C7.73812 6.44668 7.77342 6.59515 7.82263 6.72224C8.08533 7.4006 8.69564 7.88283 9.41637 7.98151C9.55139 8 9.704 8 10.0092 8V8" stroke="#8982FF" stroke-width="2" stroke-linecap="round"/>
<path d="M17.6165 17H7.72451C7.58743 17 7.51889 17 7.46655 16.9945C6.8794 16.9325 6.47347 16.378 6.59181 15.7996C6.60235 15.748 6.62306 15.6827 6.66448 15.552V15.552C6.71178 15.4028 6.73542 15.3282 6.76154 15.2624C7.04496 14.5481 7.71257 14.0593 8.47911 14.005C8.54974 14 8.628 14 8.78453 14H13.8129" stroke="#8982FF" stroke-width="2" stroke-linecap="round" stroke-linejoin="round"/>
<path d="M15.402 14H9.81534C8.83163 14 7.99398 13.2846 7.84 12.3131L7.43138 9.7348C7.28704 8.82409 7.99081 8 8.91288 8H17.9357C18.6704 8 19.1543 8.76584 18.8388 9.4294L17.2082 12.8588C16.8768 13.5559 16.1739 14 15.402 14Z" stroke="#8982FF" stroke-width="2" stroke-linecap="round"/>
<ellipse cx="16.6656" cy="20" rx="0.950921" ry="1" fill="#8982FF"/>
<ellipse cx="9.05828" cy="20" rx="0.95092" ry="1" fill="#8982FF"/>
</svg>
