<svg width="22" height="21" viewBox="0 0 22 21" fill="none" xmlns="http://www.w3.org/2000/svg">
<path d="M9.1626 12.9546L9.1626 10.3637" stroke="#A4A4A4" stroke-width="2" stroke-linecap="round"/>
<path d="M12.6277 12.9546L12.6277 10.3637" stroke="#A4A4A4" stroke-width="2" stroke-linecap="round"/>
<path d="M3.09875 6.04541H18.6915V6.04541C18.1348 6.04541 17.8564 6.04541 17.6267 6.10045C16.8947 6.27583 16.3231 6.8474 16.1477 7.57945C16.0927 7.80918 16.0927 8.08752 16.0927 8.64419V13.2727C16.0927 15.1583 16.0927 16.1011 15.5069 16.6869C14.9211 17.2727 13.9783 17.2727 12.0927 17.2727H9.69754C7.81192 17.2727 6.86911 17.2727 6.28333 16.6869C5.69754 16.1011 5.69754 15.1583 5.69754 13.2727V8.6442C5.69754 8.08752 5.69754 7.80918 5.6425 7.57945C5.46712 6.8474 4.89555 6.27583 4.1635 6.10045C3.93377 6.04541 3.65543 6.04541 3.09875 6.04541V6.04541Z" stroke="#A4A4A4" stroke-width="2" stroke-linecap="round"/>
<path d="M9.22167 2.911C9.32038 2.81918 9.53789 2.73804 9.84047 2.68018C10.143 2.62231 10.5138 2.59094 10.8952 2.59094C11.2765 2.59094 11.6473 2.62231 11.9499 2.68018C12.2524 2.73804 12.4699 2.81918 12.5687 2.911" stroke="#A4A4A4" stroke-width="2" stroke-linecap="round"/>
</svg>
