<svg width="32" height="32" viewBox="0 0 32 32" fill="none" xmlns="http://www.w3.org/2000/svg">
<rect width="32" height="32" rx="4" fill="#F1E9FD"/>
<mask id="mask0_1049_31297" style="mask-type:alpha" maskUnits="userSpaceOnUse" x="0" y="0" width="32" height="32">
<rect width="32" height="32" rx="8" fill="#D9D9D9"/>
</mask>
<g mask="url(#mask0_1049_31297)">
<path d="M7.6891 21.0002L4.86523 10.8184H6.481L8.46467 18.7033H8.55913L10.6223 10.8184H12.2232L14.2864 18.7083H14.3809L16.3596 10.8184H17.9803L15.1515 21.0002H13.6053L11.4625 13.3738H11.383L9.24023 21.0002H7.6891Z" fill="black"/>
<path d="M19.381 21.0002V10.8184H23.1097C23.8323 10.8184 24.4305 10.9377 24.9045 11.1763C25.3784 11.4116 25.7331 11.7315 25.9684 12.1358C26.2037 12.5369 26.3214 12.9893 26.3214 13.4931C26.3214 13.9173 26.2435 14.2753 26.0877 14.5669C25.9319 14.8553 25.7231 15.0873 25.4613 15.263C25.2028 15.4353 24.9177 15.5613 24.6062 15.6408V15.7402C24.9442 15.7568 25.274 15.8662 25.5955 16.0684C25.9203 16.2672 26.1888 16.5506 26.4009 16.9185C26.613 17.2864 26.7191 17.7338 26.7191 18.2608C26.7191 18.7812 26.5965 19.2485 26.3512 19.6628C26.1093 20.0738 25.7347 20.4003 25.2276 20.6422C24.7205 20.8809 24.0726 21.0002 23.2837 21.0002H19.381ZM20.9173 19.6827H23.1346C23.8704 19.6827 24.3974 19.5402 24.7156 19.2551C25.0337 18.9701 25.1928 18.6138 25.1928 18.1863C25.1928 17.8648 25.1116 17.5698 24.9492 17.3013C24.7868 17.0328 24.5548 16.8191 24.2532 16.66C23.9549 16.5009 23.6003 16.4213 23.1893 16.4213H20.9173V19.6827ZM20.9173 15.2232H22.9755C23.3202 15.2232 23.6301 15.1569 23.9052 15.0243C24.1836 14.8917 24.404 14.7061 24.5664 14.4675C24.7321 14.2256 24.815 13.9405 24.815 13.6124C24.815 13.1915 24.6675 12.8385 24.3725 12.5534C24.0775 12.2684 23.6251 12.1259 23.0153 12.1259H20.9173V15.2232Z" fill="black"/>
</g>
</svg>
