<svg width="325" height="262" viewBox="0 0 325 262" fill="none" xmlns="http://www.w3.org/2000/svg">
<rect y="0.333344" width="325" height="261" fill="white"/>
<path fill-rule="evenodd" clip-rule="evenodd" d="M81.9001 175.203H200.2C200.869 175.203 201.522 175.131 202.15 174.993C202.778 175.131 203.431 175.203 204.1 175.203H271.7C276.726 175.203 280.8 171.113 280.8 166.068C280.8 161.023 276.726 156.933 271.7 156.933H263.9C258.874 156.933 254.8 152.843 254.8 147.798C254.8 142.753 258.874 138.663 263.9 138.663H288.6C293.626 138.663 297.7 134.573 297.7 129.528C297.7 124.483 293.626 120.393 288.6 120.393H260C265.026 120.393 269.1 116.303 269.1 111.258C269.1 106.213 265.026 102.123 260 102.123H176.8C181.826 102.123 185.9 98.0335 185.9 92.9883C185.9 87.9432 181.826 83.8533 176.8 83.8533H102.7C97.6743 83.8533 93.6001 87.9432 93.6001 92.9883C93.6001 98.0335 97.6743 102.123 102.7 102.123H50.7001C45.6743 102.123 41.6001 106.213 41.6001 111.258C41.6001 116.303 45.6743 120.393 50.7001 120.393H83.2001C88.2259 120.393 92.3001 124.483 92.3001 129.528C92.3001 134.573 88.2259 138.663 83.2001 138.663H31.2001C26.1743 138.663 22.1001 142.753 22.1001 147.798C22.1001 152.843 26.1743 156.933 31.2001 156.933H81.9001C76.8743 156.933 72.8001 161.023 72.8001 166.068C72.8001 171.113 76.8743 175.203 81.9001 175.203ZM293.8 175.203C298.826 175.203 302.9 171.113 302.9 166.068C302.9 161.023 298.826 156.933 293.8 156.933C288.774 156.933 284.7 161.023 284.7 166.068C284.7 171.113 288.774 175.203 293.8 175.203Z" fill="white"/>
<path d="M217.1 193.473H246.256M83.2 193.473H111.09H83.2ZM66.4663 193.473H75.4H66.4663ZM252.366 193.473H256.1H252.366Z" stroke="#8982FF" stroke-width="2.5" stroke-linecap="round" stroke-linejoin="round"/>
<path d="M127.4 56.8434L141.83 73.0947M195.13 56.8434L180.7 73.0947L195.13 56.8434ZM161.2 51.2283V73.0947V51.2283Z" stroke="#6C63FF" stroke-opacity="0.8" stroke-width="2.5" stroke-linecap="round" stroke-linejoin="round"/>
<path fill-rule="evenodd" clip-rule="evenodd" d="M120.637 92.9883H202.025L194.737 103.963L204.455 111.28H118.207L129.14 103.963L120.637 92.9883Z" fill="#E8F0FE"/>
<rect x="115.7" y="108.648" width="92.3" height="97.875" rx="2" fill="white"/>
<path fill-rule="evenodd" clip-rule="evenodd" d="M121.661 162.161V117.32C121.661 115.473 123.169 113.975 125.03 113.975L204.299 197.603C204.299 200.066 202.335 202.063 199.912 202.063H126.048C123.625 202.063 121.661 200.066 121.661 197.603V180.938V176.417V162.161ZM121.661 171.843V166.821Z" fill="#E8F0FE"/>
<path d="M117 162.758V113.719C117 111.698 118.652 110.06 120.689 110.06H205.09C206.416 110.06 207.492 111.152 207.492 112.499V201.517C207.492 204.211 205.341 206.395 202.687 206.395H121.804C119.151 206.395 117 204.211 117 201.517V183.293V178.348M117 173.345V167.853" stroke="#8982FF" stroke-width="2.5" stroke-linecap="round"/>
<path d="M119.422 110.06V95.4272C119.422 94.0802 120.398 92.9883 121.602 92.9883L202.275 92.9883C203.479 92.9883 204.455 94.0802 204.455 95.4272V110.06" stroke="#8982FF" stroke-width="2.5"/>
<path d="M141.895 135.668C144.243 135.668 146.147 133.757 146.147 131.4C146.147 129.043 144.243 127.132 141.895 127.132C139.547 127.132 137.643 129.043 137.643 131.4C137.643 133.757 139.547 135.668 141.895 135.668Z" fill="#E8F0FE" stroke="#8982FF" stroke-width="2.5" stroke-linecap="round"/>
<path d="M181.982 135.668C184.33 135.668 186.234 133.757 186.234 131.4C186.234 129.043 184.33 127.132 181.982 127.132C179.634 127.132 177.73 129.043 177.73 131.4C177.73 133.757 179.634 135.668 181.982 135.668Z" fill="#E8F0FE" stroke="#8982FF" stroke-width="2.5" stroke-linecap="round"/>
<path d="M181.374 135.668C181.374 146.444 172.673 155.179 161.938 155.179C151.204 155.179 142.502 146.444 142.502 135.668" stroke="#8982FF" stroke-width="2.5" stroke-linecap="round"/>
<path d="M120.711 94.2039L129.263 102.678C129.774 103.184 129.779 104.011 129.275 104.524C129.187 104.612 129.088 104.688 128.979 104.749L119.422 110.06" stroke="#8982FF" stroke-width="2.5" stroke-linecap="round"/>
<path d="M203.372 94.2923L195.189 102.671C194.686 103.186 194.694 104.012 195.207 104.516C195.292 104.601 195.389 104.673 195.494 104.73L205.228 110.06" stroke="#8982FF" stroke-width="2.5" stroke-linecap="round"/>
</svg>
