<svg width="433" height="346" viewBox="0 0 433 346" fill="none" xmlns="http://www.w3.org/2000/svg">
<rect width="433" height="346" fill="white"/>
<path fill-rule="evenodd" clip-rule="evenodd" d="M358.524 112.45C365.22 112.45 370.648 117.872 370.648 124.56C370.648 131.248 365.22 136.67 358.524 136.67H289.244C295.94 136.67 301.368 142.092 301.368 148.78C301.368 155.468 295.94 160.89 289.244 160.89H327.348C334.044 160.89 339.472 166.312 339.472 173C339.472 179.688 334.044 185.11 327.348 185.11H309.727C301.284 185.11 294.44 190.532 294.44 197.22C294.44 201.679 297.904 205.715 304.832 209.33C311.528 209.33 316.956 214.752 316.956 221.44C316.956 228.128 311.528 233.55 304.832 233.55H161.076C154.38 233.55 148.952 228.128 148.952 221.44C148.952 214.752 154.38 209.33 161.076 209.33H93.5281C86.8322 209.33 81.4041 203.908 81.4041 197.22C81.4041 190.532 86.8322 185.11 93.5281 185.11H162.808C169.504 185.11 174.932 179.688 174.932 173C174.932 166.312 169.504 160.89 162.808 160.89H119.508C112.812 160.89 107.384 155.468 107.384 148.78C107.384 142.092 112.812 136.67 119.508 136.67H188.788C182.092 136.67 176.664 131.248 176.664 124.56C176.664 117.872 182.092 112.45 188.788 112.45H358.524ZM358.524 160.89C365.22 160.89 370.648 166.312 370.648 173C370.648 179.688 365.22 185.11 358.524 185.11C351.828 185.11 346.4 179.688 346.4 173C346.4 166.312 351.828 160.89 358.524 160.89Z" fill="#EDEBFF"/>
<path d="M208.706 230.09C240.751 230.09 266.728 204.143 266.728 172.135C266.728 140.127 240.751 114.18 208.706 114.18C176.661 114.18 150.684 140.127 150.684 172.135C150.684 204.143 176.661 230.09 208.706 230.09Z" fill="#F3F7FF" stroke="#8982FF" stroke-width="2.5"/>
<path fill-rule="evenodd" clip-rule="evenodd" d="M199.409 217.104C202.455 217.666 205.554 217.958 208.706 217.98C234.055 217.98 254.604 197.455 254.604 172.135C254.604 146.816 234.055 126.29 208.706 126.29C202.194 126.29 195.999 127.645 190.388 130.087C180.637 134.331 172.648 141.86 167.824 151.274C164.617 157.532 162.808 164.622 162.808 172.135C162.808 178.951 164.297 185.42 166.968 191.234C168.876 195.386 171.385 199.203 174.385 202.575" fill="white"/>
<path d="M199.409 217.104C202.455 217.666 205.554 217.958 208.706 217.98C234.055 217.98 254.604 197.455 254.604 172.135C254.604 146.816 234.055 126.29 208.706 126.29C202.194 126.29 195.999 127.645 190.388 130.087C180.637 134.331 172.648 141.86 167.824 151.274C164.617 157.532 162.808 164.622 162.808 172.135C162.808 178.951 164.297 185.42 166.968 191.234C168.876 195.386 171.385 199.203 174.385 202.575" stroke="#8982FF" stroke-width="2.5" stroke-linecap="round"/>
<path d="M179.777 207.729C183.498 210.75 187.701 213.2 192.253 214.947" stroke="#8982FF" stroke-width="2.5" stroke-linecap="round"/>
<path d="M256.336 217.98L266.728 228.36" stroke="#8982FF" stroke-width="2.5"/>
<path fill-rule="evenodd" clip-rule="evenodd" d="M265.048 226.682C261.77 229.957 261.77 235.266 265.048 238.54L284.248 257.718C287.526 260.992 292.841 260.992 296.12 257.718C299.398 254.443 299.398 249.134 296.12 245.86L276.92 226.682C273.642 223.408 268.327 223.408 265.048 226.682Z" fill="#C6C7F8" stroke="#8982FF" stroke-width="2.5"/>
<path d="M273.656 230.09L292.708 249.12" stroke="white" stroke-width="2.5" stroke-linecap="round"/>
<path fill-rule="evenodd" clip-rule="evenodd" d="M197.448 152.24C197.448 172.305 213.732 188.57 233.82 188.57C237.766 188.57 241.565 187.942 245.123 186.782C239.316 201.177 225.199 211.338 208.706 211.338C187.03 211.338 169.458 193.786 169.458 172.135C169.458 152.516 183.886 136.263 202.722 133.385C199.376 138.883 197.448 145.337 197.448 152.24Z" fill="#C6C7F8"/>
<path d="M209.572 140.13C207.366 140.13 205.212 140.347 203.128 140.76M196.833 142.684C184.984 147.657 176.664 159.358 176.664 173" stroke="#6C63FF" stroke-opacity="0.8" stroke-width="2.5" stroke-linecap="round"/>
<path d="M301.672 172.615H287.512M312.626 159.16H282.878H312.626ZM324.75 159.16H320.903H324.75Z" stroke="#6C63FF" stroke-opacity="0.8" stroke-width="2.5" stroke-linecap="round" stroke-linejoin="round"/>
<path d="M145.792 210.675H131.632M137.694 195.49H107.946H137.694ZM97.858 195.49H90.5469H97.858Z" stroke="#6C63FF" stroke-opacity="0.8" stroke-width="2.5" stroke-linecap="round" stroke-linejoin="round"/>
</svg>
