<svg width="7" height="12" viewBox="0 0 7 12" fill="none" xmlns="http://www.w3.org/2000/svg">
<path d="M0.646346 1.35372C0.59989 1.30726 0.563041 1.25211 0.537899 1.19141C0.512758 1.13072 0.499817 1.06566 0.499817 0.999965C0.499817 0.934268 0.512758 0.869213 0.537899 0.808517C0.563041 0.74782 0.59989 0.69267 0.646346 0.646215C0.692801 0.59976 0.747951 0.56291 0.808648 0.537769C0.869344 0.512628 0.934398 0.499687 1.0001 0.499687C1.06579 0.499687 1.13085 0.512628 1.19154 0.537769C1.25224 0.56291 1.30739 0.59976 1.35385 0.646215L6.35385 5.64622C6.40033 5.69265 6.43721 5.7478 6.46238 5.8085C6.48754 5.8692 6.50049 5.93426 6.50049 5.99997C6.50049 6.06567 6.48754 6.13074 6.46238 6.19144C6.43721 6.25214 6.40033 6.30728 6.35385 6.35372L1.35385 11.3537C1.26002 11.4475 1.13278 11.5002 1.00009 11.5002C0.867413 11.5002 0.740165 11.4475 0.646345 11.3537C0.552524 11.2599 0.499816 11.1326 0.499816 11C0.499816 10.8673 0.552524 10.74 0.646345 10.6462L5.29322 5.99997L0.646346 1.35372Z" fill="#101010"/>
</svg>
