<svg width="797" height="546" viewBox="0 0 797 546" fill="none" xmlns="http://www.w3.org/2000/svg">
<path d="M579.888 1.62281C1228.4 784.736 -229.606 -542.037 33.9665 697.921M33.9665 697.921C-229.606 -542.037 1256.46 828.599 607.948 45.4855M33.9665 697.921C-229.606 -542.037 1242.43 806.668 593.918 23.5542M33.9665 697.921C-229.606 -542.037 1270.49 850.53 621.977 67.417M33.9665 697.921C-229.606 -542.037 1235.41 795.702 586.903 12.5885M33.9665 697.921C-229.606 -542.037 1263.47 839.565 614.962 56.4512M33.9665 697.921C-229.606 -542.037 1249.44 817.633 600.933 34.5198M33.9665 697.921C-229.606 -542.037 1277.5 861.496 628.992 78.3827M33.9665 697.921C-229.606 -542.037 1231.9 790.219 583.396 7.10568M33.9665 697.921C-229.606 -542.037 1259.96 834.082 611.455 50.9684M33.9665 697.921C-229.606 -542.037 1245.93 812.15 597.425 29.037M33.9665 697.921C-229.606 -542.037 1273.99 856.013 625.485 72.8998M33.9665 697.921C-229.606 -542.037 1238.92 801.185 590.41 18.0713M33.9665 697.921C-229.606 -542.037 1266.98 845.048 618.47 61.9341M33.9665 697.921C-229.606 -542.037 1252.95 823.116 604.44 40.0026M33.9665 697.921C-229.606 -542.037 1281.01 866.979 632.5 83.8655" stroke="url(#paint0_linear_1287_15739)" stroke-width="2"/>
<path d="M579.888 1.62281C1228.4 784.736 -229.606 -542.037 33.9665 697.921M33.9665 697.921C-229.606 -542.037 1256.46 828.599 607.948 45.4855M33.9665 697.921C-229.606 -542.037 1242.43 806.668 593.918 23.5542M33.9665 697.921C-229.606 -542.037 1270.49 850.53 621.977 67.417M33.9665 697.921C-229.606 -542.037 1235.41 795.702 586.903 12.5885M33.9665 697.921C-229.606 -542.037 1263.47 839.565 614.962 56.4512M33.9665 697.921C-229.606 -542.037 1249.44 817.633 600.933 34.5198M33.9665 697.921C-229.606 -542.037 1277.5 861.496 628.992 78.3827M33.9665 697.921C-229.606 -542.037 1231.9 790.219 583.396 7.10568M33.9665 697.921C-229.606 -542.037 1259.96 834.082 611.455 50.9684M33.9665 697.921C-229.606 -542.037 1245.93 812.15 597.425 29.037M33.9665 697.921C-229.606 -542.037 1273.99 856.013 625.485 72.8998M33.9665 697.921C-229.606 -542.037 1238.92 801.185 590.41 18.0713M33.9665 697.921C-229.606 -542.037 1266.98 845.048 618.47 61.9341M33.9665 697.921C-229.606 -542.037 1252.95 823.116 604.44 40.0026M33.9665 697.921C-229.606 -542.037 1281.01 866.979 632.5 83.8655" stroke="url(#paint1_linear_1287_15739)" stroke-width="2"/>
<defs>
<linearGradient id="paint0_linear_1287_15739" x1="2810.46" y1="-1374.91" x2="2589.95" y2="-1684.58" gradientUnits="userSpaceOnUse">
<stop stop-color="white"/>
<stop offset="0.395" stop-color="white" stop-opacity="0.58"/>
<stop offset="0.68" stop-color="white"/>
<stop offset="1" stop-color="#F5F5F5" stop-opacity="0.66"/>
</linearGradient>
<linearGradient id="paint1_linear_1287_15739" x1="585.868" y1="142.938" x2="532.764" y2="-226.317" gradientUnits="userSpaceOnUse">
<stop stop-color="#8B54FF"/>
<stop offset="0.395" stop-color="#FFF6E8" stop-opacity="0.58"/>
<stop offset="0.68" stop-color="#0063D7"/>
<stop offset="1" stop-color="#4A0031" stop-opacity="0.66"/>
</linearGradient>
</defs>
</svg>
