<?xml version="1.0" standalone="no"?>
<!DOCTYPE svg PUBLIC "-//W3C//DTD SVG 20010904//EN"
 "http://www.w3.org/TR/2001/REC-SVG-20010904/DTD/svg10.dtd">
<svg version="1.0" xmlns="http://www.w3.org/2000/svg"
 width="89.000000pt" height="91.000000pt" viewBox="0 0 89.000000 91.000000"
 preserveAspectRatio="xMidYMid meet">

<g transform="translate(0.000000,91.000000) scale(0.100000,-0.100000)"
fill="#000000" stroke="none">
<path d="M702 824 c-105 -23 -179 -65 -258 -146 -89 -91 -264 -304 -264 -322
0 -37 119 -156 156 -156 18 0 231 175 321 263 84 82 125 157 149 271 23 114
20 117 -104 90z m-82 -184 c28 -28 25 -64 -6 -89 -34 -27 -50 -26 -79 4 -30
29 -31 45 -4 79 25 31 61 34 89 6z"/>
<path d="M125 480 c-22 -28 -41 -54 -43 -59 -3 -8 49 -31 68 -31 4 0 33 32 64
70 l56 70 -53 0 c-51 0 -53 -1 -92 -50z"/>
<path d="M150 279 c0 -28 81 -109 109 -109 12 0 21 6 21 15 0 8 -4 15 -9 15
-5 0 -31 22 -58 50 -53 55 -63 60 -63 29z"/>
<path d="M447 241 c-84 -70 -81 -64 -67 -106 6 -20 16 -35 21 -33 5 2 31 21
59 43 49 39 50 41 50 92 0 29 -1 53 -2 52 -2 0 -29 -22 -61 -48z"/>
<path d="M96 217 c-43 -24 -64 -66 -65 -129 -1 -37 0 -38 37 -38 56 1 115 32
135 71 11 24 13 37 5 44 -7 7 -14 4 -22 -9 -27 -44 -43 -57 -78 -63 -37 -5
-38 -5 -38 26 0 32 23 62 66 87 13 8 16 15 9 23 -7 7 -22 4 -49 -12z"/>
</g>
</svg>
