<svg width="16" height="20" viewBox="0 0 16 20" fill="none" xmlns="http://www.w3.org/2000/svg">
<path fill-rule="evenodd" clip-rule="evenodd" d="M3 0C1.34315 0 0 1.34315 0 3V17C0 18.6569 1.34315 20 3 20H7V15L7 14.9384C6.99993 14.2843 6.99988 13.6965 7.06383 13.2208C7.13366 12.7015 7.29579 12.1687 7.73223 11.7322C8.16867 11.2958 8.70149 11.1337 9.22085 11.0638C9.69655 10.9999 10.2843 10.9999 10.9384 11L11 11H16V3C16 1.34315 14.6569 0 13 0H3ZM15.7305 13H11C10.2646 13 9.81369 13.0021 9.48734 13.046C9.20049 13.0846 9.1526 13.1394 9.14692 13.1459L9.14645 13.1464L9.14592 13.1469C9.13942 13.1526 9.08457 13.2005 9.046 13.4873C9.00212 13.8137 9 14.2646 9 15V19.7305C9.32396 19.5831 9.62215 19.3778 9.87868 19.1213L15.1213 13.8787C15.3778 13.6222 15.5831 13.324 15.7305 13Z" fill="#222222"/>
</svg>
