<svg width="25" height="24" viewBox="0 0 25 24" fill="none" xmlns="http://www.w3.org/2000/svg">
<path fill-rule="evenodd" clip-rule="evenodd" d="M16.4991 5.37904C16.4898 5.38625 16.478 5.39573 16.4636 5.40799C16.3731 5.48478 16.2569 5.59999 16.0482 5.80862L16.0436 5.81331L13.8567 8.00015L16.4991 10.6425L18.6977 8.44383C18.9016 8.23991 19.015 8.12534 19.0909 8.03595C19.1033 8.02137 19.1128 8.00952 19.12 8.00019C19.1128 7.99081 19.1031 7.97887 19.0907 7.96417C19.0136 7.87343 18.8981 7.75679 18.6888 7.54758L16.949 5.80779C16.7407 5.59943 16.6246 5.48443 16.5343 5.40779C16.52 5.39563 16.5083 5.38621 16.4991 5.37904ZM15.1414 12.0001L12.4991 9.3578L5.45906 16.3978V19.0401L8.10142 19.0401L15.1414 12.0001ZM10.8167 19.0402L20.0385 9.81832L20.0465 9.81032L20.0474 9.80948L20.0693 9.78757C20.2481 9.60885 20.4207 9.43629 20.5546 9.27848C20.7013 9.10563 20.8572 8.88846 20.949 8.6059C21.0769 8.2123 21.0769 7.78826 20.949 7.39455C20.8571 7.11182 20.7012 6.8945 20.5543 6.72157C20.4203 6.56363 20.2475 6.3909 20.0685 6.21192L20.0465 6.18994L18.2848 4.42824C18.1066 4.25002 17.9344 4.07776 17.7768 3.944C17.6042 3.7975 17.3872 3.64179 17.1048 3.55003C16.7111 3.42213 16.2871 3.42213 15.8934 3.55003C15.6109 3.64183 15.3938 3.79765 15.2211 3.94425C15.0634 4.07813 14.891 4.25056 14.7125 4.42905L14.6936 4.44801L3.82024 15.3213C3.64021 15.5014 3.53906 15.7455 3.53906 16.0002V20.0002C3.53906 20.5303 3.96887 20.9602 4.49907 20.9602H20.4991C21.0293 20.9602 21.4591 20.5303 21.4591 20.0002C21.4591 19.47 21.0293 19.0402 20.4991 19.0402H10.8167Z" fill="#BBBBBB"/>
</svg>
